    <svg xmlns="http://www.w3.org/2000/svg" width="60" height="20" viewBox="0 0 60 20" fill="none">
    <path fill-rule="evenodd" clip-rule="evenodd" d="M42 0H58C59.1 0 60 0.9 60 2V18C60 19.1 59.1 20 58 20H42C40.9 20 40 19.1 40 18V2C40 0.9 40.9 0 42 0ZM46 17V8H43V17H46ZM44.5 6.3C43.5 6.3 42.7 5.5 42.7 4.5C42.7 3.5 43.5 2.7 44.5 2.7C45.5 2.7 46.3 3.5 46.3 4.5C46.3 5.5 45.5 6.3 44.5 6.3ZM54 17H57V11.3C57 9.4 55.4 7.8 53.5 7.8C52.6 7.8 51.5 8.4 51 9.2V8H48V17H51V11.7C51 10.9 51.7 10.2 52.5 10.2C53.3 10.2 54 10.9 54 11.7V17Z" fill="white"/>
    </svg>